<svg xmlns="http://www.w3.org/2000/svg" xmlns:xlink="http://www.w3.org/1999/xlink" width="142" height="130" viewBox="0 0 142 130">
    <defs>
        <path id="a" d="M.065.08h136.89v21.601H.064z"/>
        <path id="b" d="M0 .137h136.954v16.84H0z"/>
    </defs>
    <g fill="none" fill-rule="evenodd">
        <g transform="translate(0 83.5)">
            <path fill="#231F20" d="M128.321.084c-2.854.056-5.687.642-8.64.642H25.846c-4.958-.345-9.79-1.459-14.433.892-3.495 1.769-6.349 5.118-6.349 9.191 0 6.005 6.106 10.872 13.637 10.872.058 0 .115-.003.172 0 0 0 109.35 0 109.35-.002l.094.002c7.53 0 13.636-4.867 13.636-10.872 0-5.103-4.167-8.698-8.735-10.107-1.657-.51-3.281-.65-4.898-.618"/>
            <ellipse cx="71" cy="38" fill="#A51E22" rx="71" ry="8"/>
            <path fill="#626366" d="M36.851 30.22c-.042.013-.085.017-.128.026a9.355 9.355 0 0 0-.078 1.042c-.002.123.263-1.178.206-1.068"/>
            <path fill="#626366" d="M33.206 23.586l-.623 8.694a1.877 1.877 0 0 0 3.745.268l.162-2.265a1.61 1.61 0 0 0 .233-.037c.272-2.121 1.233-4.136 2.413-5.938.121-.185.244-.377.285-.592-2.03.31-4.137.048-6.215-.13"/>
            <path fill="#DEE0DE" d="M41.27 33.852C41.27 37.247 38.2 40 34.41 40c-3.79 0-6.862-2.753-6.862-6.148 0-3.395 3.072-6.148 6.861-6.148 3.79 0 6.862 2.753 6.862 6.148"/>
            <path fill="#EC1D24" d="M36.093 34.732c0 .68-.551 1.23-1.23 1.23h-.907a1.23 1.23 0 1 1 0-2.46h.907c.679 0 1.23.551 1.23 1.23"/>
            <path fill="#626366" d="M109.332 23.822c.634.86 1.395 1.634 2.08 2.46.91 1.096 1.72 2.373 1.799 3.795.008.15-.01.33-.142.399a6.07 6.07 0 0 0 .544-.134l.158 2.206a1.877 1.877 0 0 0 3.744-.268l-.596-8.328c-2.522.173-5.05-.035-7.587-.13"/>
            <path fill="#DEE0DE" d="M108.828 33.852c0 3.395 3.072 6.148 6.861 6.148 3.79 0 6.862-2.753 6.862-6.148 0-3.395-3.072-6.148-6.862-6.148-3.789 0-6.861 2.753-6.861 6.148"/>
            <path fill="#EC1D24" d="M117.372 34.732c0 .68-.55 1.23-1.23 1.23h-.906a1.23 1.23 0 1 1 0-2.46h.906c.68 0 1.23.551 1.23 1.23"/>
            <g transform="translate(5 9.177)">
                <mask id="c" fill="#fff">
                    <use xlink:href="#b"/>
                </mask>
                <path fill="#A67B50" d="M136.904 2.53c-.573 5.584-6.435 9.974-13.586 9.974l-.093-.002c0 .002-109.35.002-109.35.002-.058-.003-.115 0-.173 0C6.17 12.504.065 7.636.065 1.632c0-.51.045-1.01.13-1.495A.636.636 0 0 0 .109.38C-.107 1.718.065 6.766.065 6.766l.03.028c.447 5.683 6.366 10.183 13.607 10.183.058 0 .115-.003.172-.004v.004h109.35v-.002l.094.002c7.53 0 13.636-4.868 13.636-10.872 0-.303-.02-.602-.05-.899V2.53z" mask="url(#c)"/>
            </g>
        </g>
        <path fill="#A81C20" d="M85.453 37.644c-1.49-3.015-2.154-6.637-3.05-9.87-.96-3.461-1.76-6.966-2.64-10.447-1.432-5.668-3.685-13.308-9.427-16.063-6.48-3.11-9.565 4.108-11.294 8.92-1.257 3.502-2.231 7.123-3.33 10.677-1.097 3.552-3.095 7.062-2.754 10.883.165 1.849 3.076 1.865 2.91 0-.273-3.055 1.21-5.805 2.172-8.62 1.058-3.098 1.947-6.26 2.902-9.39.858-2.815 1.859-5.555 3.313-8.123 1.828-3.227 5.14-2.186 7.273.178 3.94 4.37 5.057 10.802 6.42 16.312.77 3.115 1.537 6.234 2.484 9.3.802 2.596 1.297 5.255 2.51 7.707.829 1.679 3.337.208 2.511-1.464"/>
        <path fill="#BBE2F7" d="M49.475 67.76l23.04-9.095-12.43-31.188-23.071 9.144z"/>
        <path fill="#BBE2F7" d="M37.001 36.657L48.55 32.08l2.911-11.776-10.778 4.273z"/>
        <path fill="#FEFEFE" d="M51.455 20.305l8.625 7.202-11.721 4.647z"/>
        <path fill="#7DCDF0" d="M49.45 67.797l11.358-4.504L48.364 32.16l-11.359 4.493z"/>
        <path fill="#7DCDF0" d="M51.455 20.305l8.642 7.192-11.734 4.67z"/>
        <path fill="#7DCDF0" d="M40.653 24.65l-.614-1.541c-.1-.252-.01-.525.204-.61l10.056-3.987c.213-.085.468.051.568.303l.597 1.498-10.811 4.337z"/>
        <path fill="#F8D436" d="M69.6 23.267c1.64 1.355 4.061 1.033 6.084 1.697 3.546 1.163 5.926 4.759 7.513 7.922 1.119 2.23 2.274 4.876 1.825 7.484-.242 1.4-1.14 2.397-1.566 3.7-.501 1.535-.166 3.234-.203 4.813-.049 2.055-.904 4.478-2.92 4.908-2.218.475-3.98-1.722-5.938-2.868-3.101-1.814-6.802-1.056-9.612-3.54-1.416-1.25-2.47-2.856-3.41-4.495-1.524-2.656-3.482-5.968-4.026-9.017-.44-2.465 1.778-4.164 3.268-5.829 1.197-1.338 1.255-3.3 1.717-5.033.461-1.733 1.893-3.593 3.652-3.225 1.673.35 2.3 2.395 3.617 3.483"/>
        <path fill="#EB9487" d="M102.65 22.731L80.44 55.955s20.508 8.621 28.239-2.917c7.73-11.537 7.897-19.651-6.028-30.307"/>
        <path fill="#48B648" d="M105.207 18.972l-2.532 3.778c13.9 10.646 13.73 18.758 6.004 30.289-7.73 11.537-28.238 2.916-28.238 2.916l.04-.062-.008-.005-2.425 3.618s25.277 10.624 34.7-3.439c9.422-14.063 9.433-24.107-7.54-37.095"/>
        <path fill="#231F20" d="M104.912 35.887c1.03.687 2.09.91 2.365.5.276-.412-.337-1.302-1.367-1.99-1.03-.686-2.09-.91-2.365-.498-.276.41.336 1.301 1.367 1.988M95.334 50.182c1.031.687 2.09.91 2.365.499.276-.411-.336-1.302-1.367-1.988-1.03-.687-2.09-.911-2.365-.5-.275.411.337 1.302 1.367 1.989M100.123 43.034c1.03.687 2.09.91 2.365.5.276-.412-.337-1.302-1.367-1.989s-2.09-.91-2.365-.499c-.276.411.337 1.301 1.367 1.988"/>
        <path fill="#48B648" d="M42.686 42.774c.29-1.855-1.297-3.622-2.917-3.211-.307.078-.624-.216-.801-.477-.206-.304-.129-.708-.066-1.07.404-2.33-.23-4.87-1.862-6.587-1.632-1.717-4.275-2.482-6.511-1.692.347-1.842-.25-3.836-1.555-5.185-1.304-1.349-3.28-2.018-5.139-1.739-.194-1.42-.537-2.889-1.474-3.975-.345-.4-.782-.72-1.263-.94a3.21 3.21 0 0 0-1.518-.3 2.515 2.515 0 0 0-.628.12c-.197.066-.43.12-.512.333-.09.23-.12.46-.081.705.086.53.422.998.756 1.403.231.279.482.54.732.802.78.817 1.739 1.47 2.4 2.385.588.815.926 1.818 1.666 2.5.704.65 1.685.921 2.43 1.525 1.391 1.128 1.743 3.219 3.202 4.257.432.308.938.502 1.367.815 1.35.984 1.677 2.907 2.922 4.021.501.45 1.133.747 1.586 1.246.505.556.74 1.311 1.214 1.893.77.943 2.05 1.306 2.993 2.066l.871.98c.251.355.495.716.82 1.002.015-.011.028-.024.04-.036l25.957 29.174c.326-.34 1.318-1.385 1.783-1.462L42.686 42.774z"/>
        <path fill="#7DCDF0" d="M91.105 15.316c1.099-1.102 2.121-2.315 3.329-3.303.197-.162.398-.316.602-.468l.012-.48c-2.089-.086-4.173-.229-6.247-.494a184.973 184.973 0 0 0-1.607 6.462c1.275 1.082 3.061-.865 3.91-1.717"/>
        <path fill="#516738" d="M95.048 11.065c.095-3.868.1-6.925.23-7.541l-1.367-.196-1.048-.15-.688-.098-1.367-.196c-.051.65-.965 3.766-2.007 7.687 2.074.265 4.158.408 6.247.494"/>
        <path fill="#F8D436" d="M90.309 13.978c.428-.593.903-1.883-.13-2.202-.513-.158-1.047-.163-1.578-.131l-.084.005a197.229 197.229 0 0 0-.843 3.343c1.061.005 2.066-.227 2.635-1.015M95.305 6.495c-.115-.75.247-1.485.33-2.24a3.09 3.09 0 0 0-.2-1.475.259.259 0 0 0-.187-.154 40.248 40.248 0 0 0-2.39-.412c-.407-.06-.815-.117-1.222-.175-.261-.037-.754-.191-.951.061a3.09 3.09 0 0 0-.608 1.36c-.133.748.008 1.555-.314 2.243-.074.16-.174.314-.24.476a.259.259 0 0 0 .217.353 60.98 60.98 0 0 1 5.354.765.26.26 0 0 0 .307-.278c-.018-.174-.07-.35-.096-.524"/>
        <path fill="#7DCDF0" d="M87.167 37.868c-.453-2.36-1.806-4.627-4.326-5.162a6.743 6.743 0 0 0-.973-.13l-.039.051c-4.866 6.578-6.45 15.042-6.591 23.214-.008.46-.01.92-.007 1.384 1.699-.076 3.409.035 5.104.271 1.677.234 3.298.708 4.965.965 1.498.23 3.355.178 3.962-1.5.37-1.026.641-2.696-.323-3.514-.676-.573-1.566-.764-2.428-.86-1.735-.194-3.6-.005-5.262-.615-.116-.043-.196-.217-.129-.328 2.48-4.135 7.06-8.503 6.047-13.776"/>
        <path fill="#516738" d="M95.516 34.585c-.698-1.902-1.622-3.762-1.816-5.778-.16-1.651.304-3.285.525-4.93.509-3.784.708-8.422.81-12.332a17.02 17.02 0 0 0-.601.468c-1.208.988-2.23 2.2-3.33 3.303-.849.852-2.634 2.8-3.91 1.718-.444 1.954-.838 3.9-1.11 5.68-.251 1.64-.267 3.338-.884 4.878-.746 1.86-2.135 3.374-3.332 4.984.323.02.647.061.973.13 2.52.535 3.873 2.802 4.326 5.162 1.012 5.273-3.568 9.641-6.047 13.775-.067.113.013.286.13.329 1.661.61 3.526.42 5.26.614.863.097 1.753.288 2.43.861.963.818.693 2.488.322 3.514-.607 1.678-2.464 1.73-3.962 1.5-1.667-.257-3.288-.73-4.965-.965-1.694-.236-3.404-.347-5.102-.271.037 4.29.654 8.704 3.202 12.112l3.992.819-.017.117.98.08.963.198.017-.118 4.062.334c3.772-2.833 5.621-7.515 6.87-12.057 2.167-7.883 3.03-16.45.214-24.125"/>
        <path fill="#F0A023" d="M52.888 52.922c-.181-4.543.873-9.343 3.959-12.688 3.902-4.232 10.367-5.314 16-4.093 2.905.63 5.783 1.864 7.763 4.076 1.595 1.782 2.508 4.093 2.92 6.446 1.376 7.864-3.07 16.273-10.171 19.957-1.365.708-2.832 1.264-4.364 1.408-3.75.353-7.277-1.766-10.183-4.155-2.057-1.69-4.02-3.633-5.02-6.098-.62-1.533-.838-3.2-.904-4.853"/>
        <path fill="#00AC9F" d="M68.446 43.22a.75.75 0 0 0-.2.198c-.137.228 0 .517.136.746l.503.848c.062.105.126.213.148.333.066.363-.368.711-.71.568-.096-.04-.176-.107-.26-.17a3.094 3.094 0 0 0-.383-.247c-.266-.145-.625-.24-.848-.035-.133.121-.171.312-.202.488l-.18 1.028c-.275.124-.674.21-.813-.057a.594.594 0 0 1-.047-.256l-.048-1.39c-.007-.205-1.017-.023-1.134-.005-.103.015-.396.12-.49.076-.192-.089-.399-.804-.154-.925.229-.252.68-.115.95-.323.088-.068.15-.182.122-.29-.017-.065-.065-.118-.109-.17a2.238 2.238 0 0 1-.51-1.203.639.639 0 0 1 .018-.276c.104-.3.517-.343.822-.256.284.08.55.226.77.423.241.215.486.514.807.476.102-.012.196-.059.288-.103a7.222 7.222 0 0 1 2.32-.653c.133.068.163.257.102.394-.06.136-.184.233-.303.325l-.595.455"/>
        <path fill="#F0A023" d="M67.036 44.234c0-.34-.304-.688-.664-.688a.536.536 0 0 0-.536.535c0 .317.32.7.65.699.158 0 .31-.074.415-.192a.52.52 0 0 0 .135-.354"/>
        <path fill="#00AC9F" d="M65.92 44.115a.452.452 0 1 0 .904-.002.452.452 0 0 0-.904.002"/>
        <path fill="#48B648" d="M50.771 53.834l.573-.16-4.523-4.29c-.918-.96-2.348-1.408-3.029-2.546-.47-.788-.506-1.8-1.074-2.52-.949-1.205-2.922-1.08-3.985-2.186-.63-.655-.817-1.619-1.35-2.354-1.067-1.475-3.304-1.772-4.28-3.309-.36-.566-.503-1.24-.793-1.846-.67-1.398-2.062-2.314-3.49-2.927-.66-.283-1.371-.538-1.844-1.08-.468-.536-.624-1.267-.895-1.925a5.68 5.68 0 0 0-3.134-3.088c-1.064-.419-2.372-.6-2.96-1.578-.34-.567-.34-1.274-.595-1.885-.631-1.516-2.527-1.978-3.788-3.032-.8-.67-1.35-1.595-2.131-2.286-.443-.392-.93-.787-1.506-.96-.53-.16-1.183-.101-1.586.309-.622.632-1.144 1.295-1.238 2.206a4.218 4.218 0 0 0 .325 2.098c.064.149.34.479.34.623 1.07 1.583 2.954 2.405 4.795 2.929-.264 3.677 3.217 7.163 6.904 6.915-.804 1.885.15 4.185 1.796 5.408 1.647 1.223 3.81 1.543 5.86 1.453-.855 1.77.239 3.983 1.895 5.046 1.656 1.064 3.704 1.267 5.666 1.442-.197 3.013 2.918 5.77 5.895 5.217l23.194 20.827c1.248.35 2.477.773 3.725 1.123L50.771 53.834z"/>
        <path fill="#516738" d="M75.238 55.841"/>
        <path fill="#48B648" d="M65.901 67.164l-23.66-15.83c-1.562-1.491-3.859-3.708-4.503-4.21-1.537-1.203-3.663-1.455-5.183-2.68-.564-.453-1.022-1.025-1.576-1.491-1.643-1.385-3.97-1.725-5.643-3.075-.98-.793-1.679-1.889-2.654-2.689-1.378-1.131-3.193-1.58-4.695-2.543-1.402-.897-2.455-2.225-3.674-3.336-.369-.335-.751-.659-1.151-.955-.19-.14-.43-.238-.636-.356-.398-.23-.82-.447-1.279-.522a1.942 1.942 0 0 0-.683.006c-.185.035-.463.089-.574.26-.002.002-.002.007-.003.01l-.012-.007c-.905 2.454 1.407 5.46 4.019 5.225-.25 2.042.713 4.187 2.407 5.36 1.695 1.173 4.046 1.323 5.877.376-.575 1.945.62 4.143 2.444 5.04 1.823.898 4.076.63 5.856-.349-.242 1.448.249 3.355 1.565 4.014 1.315.658 2.783.693 3.802-.367l28.904 20.321c.174-.082 1.041-1.31 1.073-1.5.032-.189.086-.862-.02-.702"/>
        <path fill="#5955A4" d="M33.529 26.615a3.269 3.269 0 0 1-3.273 3.264 3.269 3.269 0 0 1-3.273-3.264 3.269 3.269 0 0 1 3.273-3.265 3.269 3.269 0 0 1 3.273 3.265M34.671 35.06a2.49 2.49 0 0 1-2.493 2.487 2.49 2.49 0 0 1-2.494-2.487 2.49 2.49 0 0 1 2.494-2.487 2.49 2.49 0 0 1 2.493 2.487M41.945 29.257a3.01 3.01 0 0 1-3.014 3.005 3.01 3.01 0 0 1-3.013-3.005 3.01 3.01 0 0 1 3.013-3.005 3.01 3.01 0 0 1 3.014 3.005M28.75 32.573a2.698 2.698 0 0 1-2.702 2.695 2.698 2.698 0 0 1-2.702-2.695 2.698 2.698 0 0 1 2.702-2.694 2.698 2.698 0 0 1 2.701 2.694"/>
        <path fill="#5955A4" d="M29.58 22.47a2.438 2.438 0 0 1-2.441 2.435 2.438 2.438 0 0 1-2.442-2.435 2.438 2.438 0 0 1 2.442-2.436 2.438 2.438 0 0 1 2.441 2.436M39.659 22.159a2.542 2.542 0 0 1-2.546 2.539 2.542 2.542 0 0 1-2.545-2.54 2.542 2.542 0 0 1 2.545-2.538 2.542 2.542 0 0 1 2.546 2.539M48.04 47.012a2.836 2.836 0 0 1-2.84 2.832 2.836 2.836 0 0 1-2.84-2.832 2.836 2.836 0 0 1 2.84-2.833 2.836 2.836 0 0 1 2.84 2.833"/>
        <path fill="#A51E22" d="M40.602 48.7v-.003l-.051.005c-.151-.1-.252-.36-.3-.463l-.332-.711c-.082-.176-.19-.373-.43-.442a.766.766 0 0 0-.65.146c-.163.13-.243.3-.32.466l-.195.42c-.193-.013-.327-.177-.395-.323l-.332-.71c-.082-.177-.19-.374-.43-.443a.765.765 0 0 0-.651.146c-.162.13-.243.301-.32.467l-.148.32c-.181-.025-.308-.182-.373-.322l-.332-.71c-.083-.177-.19-.374-.43-.443-.225-.065-.49.016-.651.146-.162.13-.243.3-.32.467l-.195.42c-.193-.014-.327-.178-.395-.324l-.332-.71c-.082-.177-.19-.374-.43-.443-.224-.064-.49.016-.65.146-.162.13-.243.301-.32.467l-.146.313c-.147-.049-.25-.192-.307-.315l-.332-.71c-.083-.177-.19-.374-.43-.443-.225-.065-.49.016-.652.146-.01.009-.018.019-.029.028l.126 1.72 1.986 35.846-2.038 8.581 11.476 8.906-.436-50.756a1.34 1.34 0 0 1-.236-.885"/>
        <path fill="#860A0E" d="M39.891 95.608l-2.462-11.03-.775-31.314a.62.62 0 0 0-.663-.58.622.622 0 0 0-.581.66l.757 31.046-4.68 5.266a.62.62 0 0 0-.053.877c.23.258.623.28.88.053l4.076-4.731 2.274 9.97a.623.623 0 0 0 1.227-.217"/>
        <path fill="#CF252A" d="M94.773 43.79c-.123.176-.19.368-.311.543a.96.96 0 0 1-.365.315c-.513-.026-.967-.328-1.23-.66-.097-.123-.185-.255-.343-.336-.208-.107-.507-.101-.745-.013a1.139 1.139 0 0 0-.537.418c-.123.175-.19.367-.311.542a.964.964 0 0 1-.365.316c-.513-.027-.967-.328-1.23-.661-.097-.122-.185-.255-.343-.336-.208-.107-.507-.1-.744-.013a1.138 1.138 0 0 0-.538.419c-.122.175-.19.366-.311.542a.961.961 0 0 1-.365.315c-.513-.027-.966-.328-1.23-.66-.097-.123-.185-.255-.343-.336-.208-.107-.507-.101-.744-.013a1.137 1.137 0 0 0-.538.418c-.122.175-.19.367-.31.542a.965.965 0 0 1-.366.316c-.513-.027-.966-.328-1.23-.661-.097-.122-.185-.255-.343-.336-.208-.107-.507-.1-.744-.013a1.14 1.14 0 0 0-.538.418c-.122.176-.189.367-.31.543a.963.963 0 0 1-.366.315c-.513-.027-.966-.328-1.23-.66-.097-.123-.185-.255-.343-.336-.208-.108-.507-.101-.744-.013a1.138 1.138 0 0 0-.538.418c-.122.175-.189.367-.31.542a.963.963 0 0 1-.366.316c-.513-.027-.966-.328-1.23-.661-.097-.122-.185-.255-.343-.336-.208-.107-.507-.1-.744-.013a1.14 1.14 0 0 0-.538.418c-.122.176-.19.367-.31.543a.962.962 0 0 1-.366.315 1.501 1.501 0 0 1-.353-.063c.301-1.206.627-2.395.83-3.626.687-4.148 1.246-8.341 2.449-12.38 1.2-4.023 3.072-7.829 5.287-11.387 2.1-3.375 4.743-6.831 9.074-6.993 3.268-.122 4.048 3.438 4.52 5.991.718 3.874.543 7.994.534 11.916-.01 4.306-.37 8.815.297 13.084.028.174.06.348.088.521a1.1 1.1 0 0 0-.327.062 1.139 1.139 0 0 0-.537.419m25.167 53.738l-.004-.216-.006-.35-.008-.48-.01-.604-.012-.719-.014-.829-.016-.933-.018-1.03-.019-1.12-.02-1.204-.022-1.282-.023-1.353-.024-1.418-.025-1.477-.026-1.529-.027-1.574-.027-1.613c-.01-.549-.02-1.097-.028-1.646l-.029-1.672-.029-1.692-.028-1.705-.03-1.713-.029-1.712-.029-1.707-.029-1.695-.028-1.675-.028-1.65-.028-1.62-.027-1.58-.026-1.536-.025-1.485-.024-1.427a1777.009 1777.009 0 0 0-.045-2.657l-.02-1.217-.02-1.133-.018-1.044a858.602 858.602 0 0 1-.03-1.793l-.013-.736-.01-.621a164.082 164.082 0 0 1-.023-2.703v-.413c0-.034.019-.169-.007-.189-.033-.026-.11-.002-.146.002a.765.765 0 0 1-.195-.004c-.152-.02-.3-.065-.44-.129-.26-.118-.495-.3-.672-.524-.097-.122-.185-.254-.343-.336-.208-.107-.507-.1-.744-.013a1.139 1.139 0 0 0-.538.419c-.122.175-.19.367-.31.542a.962.962 0 0 1-.366.315c-.513-.026-.966-.328-1.23-.66-.097-.122-.185-.255-.343-.336-.208-.107-.507-.1-.744-.013a1.139 1.139 0 0 0-.538.418c-.122.176-.19.367-.31.543a.965.965 0 0 1-.366.315c-.513-.027-.966-.328-1.23-.661-.097-.122-.185-.254-.342-.336-.208-.107-.508-.1-.745-.013a1.139 1.139 0 0 0-.538.419c-.122.175-.189.367-.31.542a.962.962 0 0 1-.366.315c-.513-.026-.966-.328-1.23-.66-.096-.123-.185-.255-.342-.336-.208-.107-.508-.101-.745-.013a1.137 1.137 0 0 0-.538.418c-.122.175-.189.367-.31.543a.964.964 0 0 1-.365.315c-.514-.027-.967-.328-1.23-.661-.097-.122-.185-.254-.343-.336-.208-.107-.507-.1-.745-.013a1.14 1.14 0 0 0-.538.419c-.122.175-.189.367-.31.542a.96.96 0 0 1-.366.315c-.513-.026-.966-.328-1.23-.66-.096-.123-.184-.255-.342-.336-.208-.107-.507-.101-.745-.013a1.11 1.11 0 0 0-.277.153c-.03-.153-.06-.305-.087-.455-.996-5.496-.26-11.496-.334-17.061-.08-6.064.06-17.145-8.562-16.823-4.04.15-7.153 3.02-9.4 6.082-2.902 3.955-5.088 8.44-6.71 13.054-1.638 4.66-2.21 9.64-3.013 14.49-.208 1.255-.628 2.567-.962 3.89-.038.026-.072.056-.116.077-.513-.026-.966-.327-1.23-.66-.096-.122-.185-.255-.342-.336-.208-.107-.507-.1-.745-.013a1.138 1.138 0 0 0-.538.418c-.122.176-.189.367-.31.543a.96.96 0 0 1-.365.315c-.514-.027-.967-.328-1.23-.661-.097-.122-.185-.254-.343-.336-.208-.107-.507-.1-.745-.013a1.139 1.139 0 0 0-.537.419c-.123.175-.19.367-.311.542a.961.961 0 0 1-.365.315c-.513-.026-.967-.328-1.23-.66-.097-.122-.185-.255-.343-.336-.208-.107-.507-.1-.745-.013a1.138 1.138 0 0 0-.537.418c-.123.176-.19.367-.311.543a.964.964 0 0 1-.365.315c-.513-.027-.967-.328-1.23-.661-.097-.122-.185-.254-.343-.336-.208-.107-.507-.1-.745-.013a1.14 1.14 0 0 0-.537.419c-.122.175-.19.367-.311.542a.962.962 0 0 1-.365.315c-.513-.026-.967-.328-1.23-.66-.097-.122-.185-.255-.343-.336-.208-.107-.507-.1-.745-.013a1.14 1.14 0 0 0-.537.418c-.122.175-.19.367-.311.543a.961.961 0 0 1-.365.315c-.513-.027-.966-.328-1.23-.661-.097-.122-.185-.254-.343-.336-.208-.107-.507-.1-.744-.013a1.14 1.14 0 0 0-.538.419c-.122.175-.19.367-.31.542a.96.96 0 0 1-.366.315c-.513-.026-.966-.328-1.23-.66-.097-.122-.185-.255-.343-.336-.208-.107-.507-.101-.744-.013a1.14 1.14 0 0 0-.538.418c-.122.175-.19.367-.31.543a.96.96 0 0 1-.366.315c-.513-.027-.966-.328-1.23-.661-.096-.122-.185-.254-.343-.336-.208-.107-.507-.1-.744-.013a1.14 1.14 0 0 0-.538.419c-.122.175-.189.367-.31.542-.121.174-.284.314-.5.335-.15.015-.303.023-.454.034l.707 51.629 78.69-2.726-.002-.073"/>
        <path fill="#FEFEFE" d="M92.71 72.373c-1.284 1.266-2.494 2.45-3.694 3.644-3.682 3.664-7.35 7.34-11.042 10.993-1.93 1.91-4.962 1.633-6.458-.548-1.145-1.669-.906-3.85.627-5.39 2.679-2.687 5.373-5.36 8.066-8.032.193-.192.437-.333.723-.548-.314-.331-.507-.545-.711-.748-2.74-2.733-5.502-5.444-8.213-8.204-2.108-2.146-1.392-5.615 1.345-6.763 1.589-.667 3.384-.262 4.737 1.084 3.911 3.894 7.816 7.793 11.728 11.686.934.929 1.884 1.841 2.892 2.826"/>
    </g>
</svg>
